# xmcd
#
# Track frame offsets: 
#        150
#        10283
#        20843
#        31890
#        44325
#        57718
#        70968
#        81965
#        93370
#        102848
#        115758
#        129238
#
# Disc length: 1869 seconds
#
# Revision: 2
# Processed by: cddbd v1.4PL0 Copyright (c) Steve Scherf et al.
# Submitted via: ExactAudioCopy v0.90b3
#
DISCID=9d074b0c
DTITLE=Charley Pride - Pride's Platinum Greatest Hits Vol. 1
DYEAR=1900
DGENRE=Country
TTITLE0=Just Between You And Me
TTITLE1=I Know One
TTITLE2=Does My Ring Hurt Your Finger
TTITLE3=Kaw-Liga
TTITLE4=All I Have To Offer You Is Me
TTITLE5=I'm So Afraid Of Losing You Again
TTITLE6=Is Anybody Goin' To San Antone
TTITLE7=I'm Just Me 
TTITLE8=Kiss An Angel Good Morning
TTITLE9=She's Too Good To Be True 
TTITLE10=Amazing Love
TTITLE11=Mississippi Cotton Picking Delta Town
EXTD=
EXTT0=
EXTT1=
EXTT2=
EXTT3=
EXTT4=
EXTT5=
EXTT6=
EXTT7=
EXTT8=
EXTT9=
EXTT10=
EXTT11=
PLAYORDER=
